<svg width="312" height="51" viewBox="0 0 312 51" fill="none" xmlns="http://www.w3.org/2000/svg">
<g filter="url(#filter0_d_2_25423)">
<path d="M43.8622 17.9366C42.9943 16.2523 41.7671 14.9429 40.1804 14.0031C38.5937 13.0634 36.8221 12.5962 34.8554 12.5962C32.8065 12.5962 30.9579 13.0737 29.2993 14.0288C27.6407 14.9839 26.3467 16.3036 25.407 17.9828C24.4724 19.6619 24 21.5875 24 23.7442C24 25.9061 24.4724 27.8317 25.4121 29.5314C26.3518 31.2259 27.651 32.5456 29.3044 33.4853C30.9579 34.425 32.8116 34.8923 34.8605 34.8923C36.7964 34.8923 38.5526 34.4353 40.1187 33.5264C41.6901 32.6124 42.9122 31.344 43.78 29.7162V34.7229H45.8853V12.7605H43.8622V17.9366ZM42.6657 28.5403C41.8955 29.9422 40.8428 31.0411 39.5077 31.8216C38.1777 32.6072 36.668 32.9975 34.9838 32.9975C33.2995 32.9975 31.7847 32.6072 30.4393 31.8216C29.0939 31.0359 28.031 29.9422 27.2607 28.5403C26.4905 27.1385 26.1053 25.5363 26.1053 23.7442C26.1053 21.9521 26.4905 20.35 27.2607 18.9481C28.031 17.5463 29.0888 16.4525 30.4393 15.6669C31.7847 14.8812 33.2995 14.491 34.9838 14.491C36.668 14.491 38.1777 14.8864 39.5077 15.6669C40.8376 16.4525 41.8903 17.5463 42.6657 18.9481C43.436 20.35 43.8211 21.9521 43.8211 23.7442C43.8211 25.5363 43.436 27.1385 42.6657 28.5403Z" fill="white"/>
<path d="M60.5662 3.33261C58.6303 3.33261 57.1309 3.88206 56.0628 4.97581C54.9948 6.06956 54.4659 7.54331 54.4659 9.39191V12.7605H50.4246V14.568H54.4659V34.728H56.5712V14.5731H63.5548V12.7656H56.525V9.56649C56.525 6.61901 57.9012 5.14526 60.6484 5.14526C62.0246 5.14526 63.1594 5.55093 64.058 6.36739L64.9002 4.77041C64.3969 4.29286 63.7551 3.93854 62.9848 3.6972C62.2146 3.46099 61.4084 3.33775 60.5662 3.33775V3.33261Z" fill="white"/>
<path d="M70.7079 17.5565V12.7604H68.6848V34.7279H70.7901V23.282C70.7901 20.5605 71.4782 18.4346 72.8544 16.9044C74.2305 15.3741 76.1356 14.609 78.5748 14.609L79.078 14.6501V12.5858C77.0291 12.5858 75.2884 13.0121 73.8608 13.8696C72.4282 14.7271 71.3755 15.9544 70.7028 17.5514L70.7079 17.5565Z" fill="white"/>
<path d="M96.3572 14.0236C94.6884 13.0685 92.8141 12.591 90.7396 12.591C88.6599 12.591 86.7907 13.0685 85.1219 14.0236C83.453 14.9787 82.1384 16.3036 81.1885 17.9981C80.2334 19.6978 79.7558 21.6132 79.7558 23.7442C79.7558 25.8752 80.2334 27.7906 81.1885 29.4851C82.1436 31.1848 83.453 32.5096 85.1219 33.4647C86.7907 34.4198 88.665 34.8922 90.7396 34.8922C92.8141 34.8922 94.6884 34.4147 96.3572 33.4647C98.0261 32.5096 99.3407 31.1848 100.291 29.4851C101.246 27.7906 101.723 25.8752 101.723 23.7442C101.723 21.6132 101.246 19.6978 100.291 17.9981C99.3355 16.3036 98.0261 14.9736 96.3572 14.0236ZM98.4215 28.5403C97.6512 29.9421 96.5986 31.041 95.2635 31.8215C93.9335 32.6072 92.4238 32.9974 90.7396 32.9974C89.0553 32.9974 87.5456 32.6072 86.2156 31.8215C84.8805 31.0359 83.8278 29.9421 83.0576 28.5403C82.2874 27.1384 81.9022 25.5363 81.9022 23.7442C81.9022 21.9521 82.2874 20.3499 83.0576 18.9481C83.8278 17.5462 84.8805 16.4525 86.2156 15.6668C87.5456 14.8812 89.0553 14.4909 90.7396 14.4909C92.4238 14.4909 93.9284 14.8863 95.2635 15.6668C96.5934 16.4525 97.6512 17.5462 98.4215 18.9481C99.1917 20.3499 99.5769 21.9521 99.5769 23.7442C99.5769 25.5363 99.1917 27.1384 98.4215 28.5403Z" fill="white"/>
<path d="M120.8 22.4502C119.655 22.1113 118.181 21.7877 116.384 21.4899C114.776 21.2434 113.606 20.9867 112.866 20.7145C112.132 20.4424 111.762 19.9648 111.762 19.2819C111.762 18.6811 112.101 18.1932 112.784 17.8133C113.467 17.4281 114.489 17.2381 115.85 17.2381C118.14 17.2381 120.25 17.7824 122.186 18.8762L124.312 14.3369C123.3 13.7361 122.027 13.2688 120.492 12.9247C118.951 12.5858 117.406 12.4164 115.85 12.4164C113.749 12.4164 111.932 12.7142 110.391 13.315C108.851 13.9158 107.68 14.7528 106.874 15.8312C106.073 16.9095 105.667 18.1419 105.667 19.5283C105.667 21.1921 106.098 22.4707 106.956 23.3693C107.813 24.2679 108.83 24.8944 110.001 25.2487C111.172 25.603 112.661 25.9163 114.458 26.1884C115.983 26.3784 117.113 26.6095 117.852 26.8817C118.587 27.1538 118.956 27.6057 118.956 28.2322C118.956 29.5673 117.606 30.2348 114.91 30.2348C113.575 30.2348 112.214 30.0345 110.822 29.6392C109.431 29.2438 108.245 28.7354 107.264 28.1089L105.138 32.6893C106.175 33.3723 107.562 33.9371 109.308 34.3839C111.054 34.8306 112.835 35.0617 114.663 35.0617C116.815 35.0617 118.674 34.769 120.245 34.1836C121.811 33.5982 123.003 32.7715 123.824 31.7086C124.641 30.6456 125.052 29.4338 125.052 28.0678C125.052 26.4606 124.63 25.2077 123.783 24.309C122.936 23.4104 121.945 22.7891 120.8 22.4502Z" fill="white"/>
<path d="M139.897 12.4113C138.48 12.4113 137.17 12.6372 135.974 13.0839C134.772 13.5307 133.75 14.1828 132.908 15.025V4.40067H126.53V34.7382H132.908V23.8623C132.908 21.9007 133.386 20.4218 134.341 19.4257C135.296 18.4295 136.575 17.9314 138.187 17.9314C139.63 17.9314 140.734 18.3627 141.499 19.2203C142.264 20.0778 142.644 21.3821 142.644 23.1229V34.7331H149.022V22.1421C149.022 18.9276 148.185 16.4987 146.506 14.8658C144.826 13.2329 142.629 12.4113 139.902 12.4113H139.897Z" fill="white"/>
<path d="M158.701 12.7399H152.323V34.7331H158.701V12.7399Z" fill="white"/>
<path d="M180.756 13.8234C179.082 12.8837 177.218 12.4164 175.174 12.4164C172.15 12.4164 169.844 13.3715 168.262 15.2766V12.7399H162.172V42.6666H168.55V32.4018C170.157 34.1733 172.365 35.0617 175.174 35.0617C177.218 35.0617 179.077 34.5893 180.756 33.6496C182.435 32.7099 183.744 31.385 184.7 29.6854C185.655 27.9805 186.132 25.9984 186.132 23.7339C186.132 21.4694 185.655 19.4873 184.7 17.7876C183.744 16.0879 182.43 14.7631 180.756 13.8234ZM178.101 28.1757C177.054 29.2797 175.708 29.8291 174.075 29.8291C172.442 29.8291 171.097 29.2746 170.049 28.1757C169.002 27.0717 168.478 25.5928 168.478 23.739C168.478 21.8853 169.002 20.4064 170.049 19.3024C171.097 18.1984 172.442 17.6438 174.075 17.6438C175.708 17.6438 177.054 18.1984 178.101 19.3024C179.149 20.4064 179.672 21.8853 179.672 23.739C179.672 25.5928 179.149 27.0717 178.101 28.1757Z" fill="white"/>
<path d="M206.513 13.8234C204.839 12.8837 202.975 12.4164 200.931 12.4164C197.907 12.4164 195.601 13.3715 194.02 15.2766V12.7399H187.93V42.6666H194.307V32.4018C195.914 34.1733 198.122 35.0617 200.931 35.0617C202.975 35.0617 204.834 34.5893 206.513 33.6496C208.192 32.7099 209.502 31.385 210.457 29.6854C211.412 27.9805 211.889 25.9984 211.889 23.7339C211.889 21.4694 211.412 19.4873 210.457 17.7876C209.502 16.0879 208.187 14.7631 206.513 13.8234ZM203.858 28.1757C202.811 29.2797 201.465 29.8291 199.832 29.8291C198.2 29.8291 196.854 29.2746 195.807 28.1757C194.759 27.0717 194.235 25.5928 194.235 23.739C194.235 21.8853 194.759 20.4064 195.807 19.3024C196.854 18.1984 198.2 17.6438 199.832 17.6438C201.465 17.6438 202.811 18.1984 203.858 19.3024C204.906 20.4064 205.43 21.8853 205.43 23.739C205.43 25.5928 204.906 27.0717 203.858 28.1757Z" fill="white"/>
<path d="M231.269 13.8028C229.523 12.8785 227.577 12.4113 225.425 12.4113C223.274 12.4113 221.22 12.8939 219.433 13.8645C217.646 14.835 216.244 16.1803 215.222 17.9108C214.2 19.6413 213.687 21.5824 213.687 23.7391C213.687 25.9214 214.205 27.8676 215.243 29.5827C216.28 31.3029 217.754 32.6431 219.659 33.6085C221.564 34.579 223.762 35.0617 226.242 35.0617C230.221 35.0617 233.246 33.8755 235.32 31.5032L231.926 27.8265C231.161 28.5608 230.339 29.1 229.451 29.4389C228.568 29.7778 227.551 29.9524 226.406 29.9524C224.742 29.9524 223.351 29.557 222.236 28.7662C221.117 27.9754 220.408 26.9022 220.111 25.5363H236.748C236.83 24.4734 236.871 23.9034 236.871 23.8212C236.871 21.531 236.373 19.5232 235.377 17.7927C234.381 16.0622 233.01 14.7323 231.269 13.808V13.8028ZM220.028 21.8186C220.244 20.4013 220.845 19.2819 221.826 18.4654C222.806 17.6489 224.018 17.2381 225.466 17.2381C226.914 17.2381 228.085 17.6541 229.066 18.486C230.047 19.3178 230.648 20.427 230.863 21.8186H220.028Z" fill="white"/>
<path d="M245.616 15.6412V12.7399H239.526V25.5466H245.904V24.3552C245.904 22.3115 246.422 20.7762 247.46 19.7543C248.497 18.7324 249.924 18.2189 251.752 18.2189C251.999 18.2189 252.476 18.2497 253.185 18.3011V12.4164C251.496 12.4164 250.001 12.6885 248.707 13.2328C247.413 13.7772 246.381 14.5833 245.621 15.6463L245.616 15.6412Z" fill="white"/>
<path d="M164.766 4.40069L156.057 0L158.475 4.44177L156.057 8.79624L164.766 4.40069Z" fill="#F7941D"/>
<path d="M155.826 4.40069L147.122 0L149.54 4.44177L147.122 8.79624L155.826 4.40069Z" fill="#F7941D"/>
<path d="M245.904 28.3554H239.526V34.7331H245.904V28.3554Z" fill="#F7941D"/>
</g>
<defs>
<filter id="filter0_d_2_25423" x="-4" y="0" width="320" height="50.6667" filterUnits="userSpaceOnUse" color-interpolation-filters="sRGB">
<feFlood flood-opacity="0" result="BackgroundImageFix"/>
<feColorMatrix in="SourceAlpha" type="matrix" values="0 0 0 0 0 0 0 0 0 0 0 0 0 0 0 0 0 0 127 0" result="hardAlpha"/>
<feOffset dy="4"/>
<feGaussianBlur stdDeviation="2"/>
<feComposite in2="hardAlpha" operator="out"/>
<feColorMatrix type="matrix" values="0 0 0 0 0 0 0 0 0 0 0 0 0 0 0 0 0 0 0.25 0"/>
<feBlend mode="normal" in2="BackgroundImageFix" result="effect1_dropShadow_2_25423"/>
<feBlend mode="normal" in="SourceGraphic" in2="effect1_dropShadow_2_25423" result="shape"/>
</filter>
</defs>
</svg>
