<svg width="24" height="25" viewBox="0 0 24 25" fill="none" xmlns="http://www.w3.org/2000/svg">
<path d="M14 2.93622V7.06676C14 7.62681 14 7.90684 14.109 8.12075C14.2049 8.30891 14.3578 8.46189 14.546 8.55776C14.7599 8.66676 15.0399 8.66676 15.6 8.66676H19.7305M16 13.6667H8M16 17.6667H8M10 9.66669H8M14 2.66669H8.8C7.11984 2.66669 6.27976 2.66669 5.63803 2.99367C5.07354 3.28129 4.6146 3.74023 4.32698 4.30472C4 4.94645 4 5.78653 4 7.46669V17.8667C4 19.5468 4 20.3869 4.32698 21.0287C4.6146 21.5931 5.07354 22.0521 5.63803 22.3397C6.27976 22.6667 7.11984 22.6667 8.8 22.6667H15.2C16.8802 22.6667 17.7202 22.6667 18.362 22.3397C18.9265 22.0521 19.3854 21.5931 19.673 21.0287C20 20.3869 20 19.5468 20 17.8667V8.66669L14 2.66669Z" stroke="#EAAA08" stroke-width="2" stroke-linecap="round" stroke-linejoin="round"/>
</svg>
