<svg width="106" height="36" viewBox="0 0 106 36" fill="none" xmlns="http://www.w3.org/2000/svg">
<path d="M0.5 9.6C0.5 7.91159 0.500389 6.67536 0.580085 5.69993C0.659303 4.73034 0.814384 4.06255 1.09946 3.50305C1.62677 2.46816 2.46816 1.62677 3.50305 1.09946C4.06255 0.814384 4.73034 0.659303 5.69993 0.580085C6.67536 0.500389 7.91159 0.5 9.6 0.5H35.5V35.5H9.6C7.91159 35.5 6.67536 35.4996 5.69993 35.4199C4.73034 35.3407 4.06255 35.1856 3.50305 34.9005C2.46816 34.3732 1.62677 33.5318 1.09946 32.4969L0.653961 32.7239L1.09946 32.4969C0.814384 31.9374 0.659303 31.2697 0.580085 30.3001C0.500389 29.3246 0.5 28.0884 0.5 26.4V9.6Z" fill="white"/>
<path d="M0.5 9.6C0.5 7.91159 0.500389 6.67536 0.580085 5.69993C0.659303 4.73034 0.814384 4.06255 1.09946 3.50305C1.62677 2.46816 2.46816 1.62677 3.50305 1.09946C4.06255 0.814384 4.73034 0.659303 5.69993 0.580085C6.67536 0.500389 7.91159 0.5 9.6 0.5H35.5V35.5H9.6C7.91159 35.5 6.67536 35.4996 5.69993 35.4199C4.73034 35.3407 4.06255 35.1856 3.50305 34.9005C2.46816 34.3732 1.62677 33.5318 1.09946 32.4969L0.653961 32.7239L1.09946 32.4969C0.814384 31.9374 0.659303 31.2697 0.580085 30.3001C0.500389 29.3246 0.5 28.0884 0.5 26.4V9.6Z" stroke="#D1D5DB"/>
<path d="M22 18.6667V22.6667C22 23.0203 21.8595 23.3594 21.6095 23.6095C21.3594 23.8595 21.0203 24 20.6667 24H13.3333C12.9797 24 12.6406 23.8595 12.3905 23.6095C12.1405 23.3594 12 23.0203 12 22.6667V15.3333C12 14.9797 12.1405 14.6406 12.3905 14.3905C12.6406 14.1405 12.9797 14 13.3333 14H17.3333M20 12H24M24 12V16M24 12L16.6667 19.3333" stroke="#101010" stroke-width="1.5" stroke-linecap="round" stroke-linejoin="round"/>
<rect x="35.5" y="0.5" width="35" height="35" fill="white"/>
<rect x="35.5" y="0.5" width="35" height="35" stroke="#D1D5DB"/>
<g clip-path="url(#clip0_2048_608)">
<path d="M51.6666 18.6667C51.9529 19.0494 52.3181 19.3661 52.7376 19.5953C53.1571 19.8245 53.6209 19.9607 54.0977 19.9949C54.5744 20.029 55.0529 19.9602 55.5008 19.7932C55.9486 19.6261 56.3553 19.3647 56.6932 19.0267L58.6932 17.0267C59.3004 16.398 59.6364 15.556 59.6288 14.682C59.6212 13.808 59.2706 12.972 58.6526 12.3539C58.0346 11.7359 57.1985 11.3853 56.3246 11.3778C55.4506 11.3702 54.6086 11.7061 53.9799 12.3133L52.8332 13.4533M54.3332 17.3333C54.0469 16.9506 53.6817 16.6339 53.2622 16.4047C52.8427 16.1755 52.3789 16.0393 51.9021 16.0051C51.4254 15.971 50.9468 16.0398 50.499 16.2068C50.0512 16.3739 49.6445 16.6353 49.3066 16.9733L47.3066 18.9733C46.6994 19.602 46.3634 20.444 46.371 21.318C46.3786 22.192 46.7291 23.028 47.3472 23.6461C47.9652 24.2641 48.8012 24.6147 49.6752 24.6222C50.5492 24.6298 51.3912 24.2939 52.0199 23.6867L53.1599 22.5467" stroke="#101010" stroke-width="1.5" stroke-linecap="round" stroke-linejoin="round"/>
</g>
<path d="M102.497 1.09946L102.723 0.655227L102.497 1.09946C103.532 1.62677 104.373 2.46816 104.901 3.50305C105.186 4.06255 105.341 4.73034 105.42 5.69993C105.5 6.67536 105.5 7.91159 105.5 9.6V26.4C105.5 28.0884 105.5 29.3246 105.42 30.3001C105.341 31.2697 105.186 31.9374 104.901 32.4969C104.373 33.5318 103.532 34.3732 102.497 34.9005C101.937 35.1856 101.27 35.3407 100.3 35.4199C99.3246 35.4996 98.0884 35.5 96.4 35.5H70.5V0.5H96.4C98.0884 0.5 99.3246 0.500389 100.3 0.580085C101.27 0.659303 101.937 0.814384 102.497 1.09946Z" fill="white"/>
<path d="M102.497 1.09946L102.723 0.655227L102.497 1.09946C103.532 1.62677 104.373 2.46816 104.901 3.50305C105.186 4.06255 105.341 4.73034 105.42 5.69993C105.5 6.67536 105.5 7.91159 105.5 9.6V26.4C105.5 28.0884 105.5 29.3246 105.42 30.3001C105.341 31.2697 105.186 31.9374 104.901 32.4969C104.373 33.5318 103.532 34.3732 102.497 34.9005C101.937 35.1856 101.27 35.3407 100.3 35.4199C99.3246 35.4996 98.0884 35.5 96.4 35.5H70.5V0.5H96.4C98.0884 0.5 99.3246 0.500389 100.3 0.580085C101.27 0.659303 101.937 0.814384 102.497 1.09946Z" stroke="#D1D5DB"/>
<path d="M88.0001 18.6667C88.3683 18.6667 88.6667 18.3682 88.6667 18C88.6667 17.6318 88.3683 17.3333 88.0001 17.3333C87.6319 17.3333 87.3334 17.6318 87.3334 18C87.3334 18.3682 87.6319 18.6667 88.0001 18.6667Z" stroke="#101010" stroke-width="1.5" stroke-linecap="round" stroke-linejoin="round"/>
<path d="M92.6667 18.6667C93.0349 18.6667 93.3334 18.3682 93.3334 18C93.3334 17.6318 93.0349 17.3333 92.6667 17.3333C92.2986 17.3333 92.0001 17.6318 92.0001 18C92.0001 18.3682 92.2986 18.6667 92.6667 18.6667Z" stroke="#101010" stroke-width="1.5" stroke-linecap="round" stroke-linejoin="round"/>
<path d="M83.3334 18.6667C83.7016 18.6667 84.0001 18.3682 84.0001 18C84.0001 17.6318 83.7016 17.3333 83.3334 17.3333C82.9652 17.3333 82.6667 17.6318 82.6667 18C82.6667 18.3682 82.9652 18.6667 83.3334 18.6667Z" stroke="#101010" stroke-width="1.5" stroke-linecap="round" stroke-linejoin="round"/>
<defs>
<clipPath id="clip0_2048_608">
<rect width="16" height="16" fill="white" transform="translate(45 10)"/>
</clipPath>
</defs>
</svg>
