<svg width="36" height="36" viewBox="0 0 36 36" fill="none" xmlns="http://www.w3.org/2000/svg">
<path d="M32.4969 1.09946L32.7233 0.655227L32.4969 1.09946C33.5318 1.62677 34.3732 2.46816 34.9005 3.50305C35.1856 4.06255 35.3407 4.73034 35.4199 5.69993C35.4996 6.67536 35.5 7.91159 35.5 9.6V26.4C35.5 28.0884 35.4996 29.3246 35.4199 30.3001C35.3407 31.2697 35.1856 31.9374 34.9005 32.4969C34.3732 33.5318 33.5318 34.3732 32.4969 34.9005C31.9374 35.1856 31.2697 35.3407 30.3001 35.4199C29.3246 35.4996 28.0884 35.5 26.4 35.5H0.5V0.5H26.4C28.0884 0.5 29.3246 0.500389 30.3001 0.580085C31.2697 0.659303 31.9374 0.814384 32.4969 1.09946Z" fill="white"/>
<path d="M32.4969 1.09946L32.7233 0.655227L32.4969 1.09946C33.5318 1.62677 34.3732 2.46816 34.9005 3.50305C35.1856 4.06255 35.3407 4.73034 35.4199 5.69993C35.4996 6.67536 35.5 7.91159 35.5 9.6V26.4C35.5 28.0884 35.4996 29.3246 35.4199 30.3001C35.3407 31.2697 35.1856 31.9374 34.9005 32.4969C34.3732 33.5318 33.5318 34.3732 32.4969 34.9005C31.9374 35.1856 31.2697 35.3407 30.3001 35.4199C29.3246 35.4996 28.0884 35.5 26.4 35.5H0.5V0.5H26.4C28.0884 0.5 29.3246 0.500389 30.3001 0.580085C31.2697 0.659303 31.9374 0.814384 32.4969 1.09946Z" stroke="#D1D5DB"/>
<path d="M18.0001 18.6667C18.3683 18.6667 18.6667 18.3682 18.6667 18C18.6667 17.6318 18.3683 17.3333 18.0001 17.3333C17.6319 17.3333 17.3334 17.6318 17.3334 18C17.3334 18.3682 17.6319 18.6667 18.0001 18.6667Z" stroke="#101010" stroke-width="1.5" stroke-linecap="round" stroke-linejoin="round"/>
<path d="M22.6667 18.6667C23.0349 18.6667 23.3334 18.3682 23.3334 18C23.3334 17.6318 23.0349 17.3333 22.6667 17.3333C22.2986 17.3333 22.0001 17.6318 22.0001 18C22.0001 18.3682 22.2986 18.6667 22.6667 18.6667Z" stroke="#101010" stroke-width="1.5" stroke-linecap="round" stroke-linejoin="round"/>
<path d="M13.3334 18.6667C13.7016 18.6667 14.0001 18.3682 14.0001 18C14.0001 17.6318 13.7016 17.3333 13.3334 17.3333C12.9652 17.3333 12.6667 17.6318 12.6667 18C12.6667 18.3682 12.9652 18.6667 13.3334 18.6667Z" stroke="#101010" stroke-width="1.5" stroke-linecap="round" stroke-linejoin="round"/>
</svg>
