<svg width="28" height="31" viewBox="0 0 28 31" fill="none" xmlns="http://www.w3.org/2000/svg">
<g filter="url(#filter0_d_2048_172)">
<path d="M14 15.6667C10.8299 15.6667 8.01077 17.1973 6.21597 19.5727C5.82968 20.0839 5.63653 20.3395 5.64285 20.685C5.64773 20.9519 5.81533 21.2886 6.02534 21.4534C6.29716 21.6667 6.67384 21.6667 7.4272 21.6667H20.5727C21.3261 21.6667 21.7028 21.6667 21.9746 21.4534C22.1846 21.2886 22.3522 20.9519 22.3571 20.685C22.3634 20.3395 22.1703 20.0839 21.784 19.5727C19.9892 17.1973 17.17 15.6667 14 15.6667Z" stroke="#EAAA08" stroke-width="2" stroke-linecap="round" stroke-linejoin="round"/>
<path d="M14 12.6667C16.4853 12.6667 18.5 10.652 18.5 8.16669C18.5 5.68141 16.4853 3.66669 14 3.66669C11.5147 3.66669 9.49997 5.68141 9.49997 8.16669C9.49997 10.652 11.5147 12.6667 14 12.6667Z" stroke="#EAAA08" stroke-width="2" stroke-linecap="round" stroke-linejoin="round"/>
</g>
<defs>
<filter id="filter0_d_2048_172" x="-2" y="0.666687" width="32" height="32" filterUnits="userSpaceOnUse" color-interpolation-filters="sRGB">
<feFlood flood-opacity="0" result="BackgroundImageFix"/>
<feColorMatrix in="SourceAlpha" type="matrix" values="0 0 0 0 0 0 0 0 0 0 0 0 0 0 0 0 0 0 127 0" result="hardAlpha"/>
<feOffset dy="4"/>
<feGaussianBlur stdDeviation="2"/>
<feComposite in2="hardAlpha" operator="out"/>
<feColorMatrix type="matrix" values="0 0 0 0 0 0 0 0 0 0 0 0 0 0 0 0 0 0 0.25 0"/>
<feBlend mode="normal" in2="BackgroundImageFix" result="effect1_dropShadow_2048_172"/>
<feBlend mode="normal" in="SourceGraphic" in2="effect1_dropShadow_2048_172" result="shape"/>
</filter>
</defs>
</svg>
